<?xml version="1.0" encoding="UTF-8"?>
<svg width="155px" height="40px" viewBox="0 0 155 40" version="1.1" xmlns="http://www.w3.org/2000/svg" xmlns:xlink="http://www.w3.org/1999/xlink">
    <!-- Generator: Sketch 61 (89581) - https://sketch.com -->
    <title>Axis Logo_Website@2x</title>
    <desc>Created with Sketch.</desc>
    <g id="Page-1" stroke="none" stroke-width="1" fill="none" fill-rule="evenodd">
        <g id="Header-images" transform="translate(-206.000000, -809.000000)" fill="#FFFFFF">
            <g id="Axis-Logo_Website" transform="translate(206.000000, 809.000000)">
                <polygon id="Fill-1" points="22.662 24.3546667 31.2195 39.2771667 45.3186667 39.2771667 36.7561667 24.3546667"></polygon>
                <polygon id="Fill-2" points="22.614 -8.33333333e-05 -0.000166666667 39.27825 14.0656667 39.27825 29.6773333 12.15325"></polygon>
                <path d="M54.065,19.2158333 L51.6883333,14.6633333 L49.1958333,19.2158333 L54.065,19.2158333 Z M55.0408333,21.1166667 L48.1908333,21.1166667 L46.4091667,24.355 L43.7975,24.355 L51.7316667,10.13 L59.3833333,24.355 L56.7358333,24.355 L55.0408333,21.1166667 Z" id="Fill-3"></path>
                <polygon id="Fill-4" points="64.74375 17.3696667 60.32625 10.9888333 63.0804167 10.9888333 66.14625 15.508 69.35125 10.9888333 72.1279167 10.9888333 67.51875 17.3696667 72.3654167 24.3538333 69.6479167 24.3538333 66.11125 19.2296667 62.44375 24.3538333 59.7095833 24.3538333"></polygon>
                <polygon id="Fill-5" points="74.5333333 24.354 76.9483333 24.354 76.9483333 10.9856667 74.5333333 10.9856667"></polygon>
                <g id="Group-16" transform="translate(78.333333, 9.278167)">
                    <path d="M10.6885,3.67866667 L8.72266667,4.65283333 C8.34933333,4.12283333 8.00933333,3.77283333 7.66766667,3.612 C7.326,3.4295 6.87683333,3.337 6.331,3.337 C5.66266667,3.337 5.111,3.49783333 4.6635,3.81783333 C4.21683333,4.12866667 3.9935,4.517 3.9935,4.99283333 C3.9935,5.64616667 4.58016667,6.17283333 5.741,6.5695 L7.33933333,7.1195 C8.64016667,7.5495 9.591,8.09116667 10.1993333,8.72033333 C10.8085,9.35616667 11.0968333,10.1261667 11.0968333,11.0511667 C11.0968333,12.2811667 10.6093333,13.3078333 9.616,14.0978333 C8.636,14.9111667 7.40266667,15.3128333 5.9335,15.3128333 C4.541,15.3128333 3.38766667,14.9736667 2.48683333,14.272 C1.591,13.577 1.041,12.6128333 0.812666667,11.3778333 L3.26016667,10.9236667 C3.37683333,11.7153333 3.56266667,12.2478333 3.84933333,12.5503333 C4.34266667,13.1236667 5.07933333,13.4186667 6.03183333,13.4186667 C6.79183333,13.4186667 7.41016667,13.2103333 7.90516667,12.7795 C8.41016667,12.367 8.656,11.827 8.656,11.1811667 C8.656,10.9236667 8.6185,10.6845 8.51266667,10.4736667 C8.4435,10.2503333 8.306,10.0536667 8.1235,9.87283333 C7.9485,9.69866667 7.69683333,9.51533333 7.41016667,9.35616667 C7.11766667,9.1995 6.77433333,9.05783333 6.37516667,8.90116667 L4.82766667,8.36616667 C2.62183333,7.5945 1.53683333,6.46533333 1.53683333,4.97116667 C1.53683333,3.967 1.99933333,3.14033333 2.91683333,2.4645 C3.83183333,1.7795 4.97683333,1.432 6.346,1.432 C8.19433333,1.432 9.65183333,2.182 10.6885,3.67866667" id="Fill-6"></path>
                    <path d="M22.9973333,13.1709167 L24.494,13.1709167 C25.5973333,13.1709167 26.399,12.9959167 26.9115,12.6425833 C27.4498333,12.2500833 27.7231667,11.7625833 27.7231667,11.1775833 C27.7231667,10.5984167 27.4498333,10.1109167 26.9373333,9.71008333 C26.4323333,9.33675 25.5306667,9.13258333 24.2215,9.13258333 L22.9973333,9.13258333 L22.9973333,13.1709167 Z M22.9973333,7.44341667 L23.7631667,7.44341667 C24.6565,7.44341667 25.3231667,7.28258333 25.7373333,6.95091667 C26.1515,6.61508333 26.3698333,6.13008333 26.3698333,5.49175 C26.3698333,4.85175 26.1515,4.37008333 25.7248333,4.06341667 C25.2931667,3.72425 24.6731667,3.56258333 23.8556667,3.56258333 L22.9973333,3.56258333 L22.9973333,7.44341667 Z M20.5798333,15.0759167 L20.5798333,1.70925 L22.9973333,1.70925 C24.0715,1.70925 24.9223333,1.77341667 25.5623333,1.91091667 C26.2031667,2.04675 26.7423333,2.29008333 27.184,2.60425 C27.6365,2.96175 27.9881667,3.38175 28.2556667,3.89508333 C28.5306667,4.39591667 28.664,4.92591667 28.664,5.44591667 C28.664,6.40508333 28.2223333,7.21425 27.3381667,7.87758333 C28.1956667,8.11925 28.8656667,8.55008333 29.3548333,9.15425 C29.8598333,9.75091667 30.1073333,10.43925 30.1073333,11.2559167 C30.1073333,12.28925 29.6656667,13.1709167 28.7756667,13.9000833 C28.2431667,14.3434167 27.6465,14.6559167 26.984,14.8200833 C26.254,14.99175 25.3423333,15.0759167 24.2465,15.0759167 L20.5798333,15.0759167 Z" id="Fill-8"></path>
                    <path d="M40.50625,9.93766667 L38.1245833,5.38516667 L35.6220833,9.93766667 L40.50625,9.93766667 Z M41.48875,11.8385 L34.6279167,11.8385 L32.8429167,15.0768333 L30.2329167,15.0768333 L38.15625,0.851833333 L45.82125,15.0768333 L43.1604167,15.0768333 L41.48875,11.8385 Z" id="Fill-10"></path>
                    <polygon id="Fill-12" points="47.404 15.07725 47.404 0.778916667 59.0915 11.0014167 59.0915 1.70808333 61.5098333 1.70808333 61.5098333 15.8939167 49.8231667 5.70475 49.8231667 15.07725"></polygon>
                    <polygon id="Fill-14" points="66.9271667 7.04825 73.173 1.70991667 76.398 1.70991667 69.1488333 7.76325 76.443 15.0749167 73.2021667 15.0749167 67.4338333 9.12658333 66.9271667 9.54241667 66.9271667 15.0749167 64.5038333 15.0749167 64.5038333 1.70991667 66.9271667 1.70991667"></polygon>
                </g>
            </g>
        </g>
    </g>
</svg>