<?xml version="1.0" encoding="UTF-8"?>
<svg width="29px" height="20px" viewBox="0 0 29 20" version="1.1" xmlns="http://www.w3.org/2000/svg" xmlns:xlink="http://www.w3.org/1999/xlink">
    <!-- Generator: Sketch 53 (72520) - https://sketchapp.com -->
    <title>Menu</title>
    <desc>Created with Sketch.</desc>
    <g id="My-Profile-Sub-Flow" stroke="none" stroke-width="1" fill="none" fill-rule="evenodd">
        <g id="01_Update_employer_name" transform="translate(-30.000000, -20.000000)" fill="#FFFFFF">
            <g id="top_section">
                <g id="Menu" transform="translate(30.000000, 20.000000)">
                    <path d="M1.42857143,0 L27.1428571,1.55431223e-15 C27.9318354,-6.92880982e-16 28.5714286,0.639593215 28.5714286,1.42857143 L28.5714286,1.42857143 C28.5714286,2.21754964 27.9318354,2.85714286 27.1428571,2.85714286 L1.42857143,2.85714286 C0.639593215,2.85714286 9.66219644e-17,2.21754964 0,1.42857143 L0,1.42857143 C-9.66219644e-17,0.639593215 0.639593215,1.44932947e-16 1.42857143,0 Z" id="Rectangle-3"></path>
                    <path d="M1.42857143,17.1428571 L27.1428571,17.1428571 C27.9318354,17.1428571 28.5714286,17.7824504 28.5714286,18.5714286 L28.5714286,18.5714286 C28.5714286,19.3604068 27.9318354,20 27.1428571,20 L1.42857143,20 C0.639593215,20 9.66219644e-17,19.3604068 0,18.5714286 L0,18.5714286 C-9.66219644e-17,17.7824504 0.639593215,17.1428571 1.42857143,17.1428571 Z" id="Rectangle-3"></path>
                    <path d="M1.42857143,8.57142857 L18.5714286,8.57142857 C19.3604068,8.57142857 20,9.21102179 20,10 L20,10 C20,10.7889782 19.3604068,11.4285714 18.5714286,11.4285714 L1.42857143,11.4285714 C0.639593215,11.4285714 9.66219644e-17,10.7889782 0,10 L0,10 C-9.66219644e-17,9.21102179 0.639593215,8.57142857 1.42857143,8.57142857 Z" id="Rectangle-3"></path>
                </g>
            </g>
        </g>
    </g>
</svg>