<?xml version="1.0" encoding="UTF-8"?>
<svg width="12px" height="12px" viewBox="0 0 12 12" version="1.1" xmlns="http://www.w3.org/2000/svg" xmlns:xlink="http://www.w3.org/1999/xlink">
    <!-- Generator: Sketch 52.4 (67378) - http://www.bohemiancoding.com/sketch -->
    <title>secured login_icon_lock</title>
    <desc>Created with Sketch.</desc>
    <g id="secured-login_icon_lock" stroke="none" stroke-width="1" fill="none" fill-rule="evenodd">
        <g id="Group" transform="translate(1.000000, 0.000000)">
            <path d="M10.2857143,5.78571429 L10.2857143,11.3571429 C10.2857143,11.7214286 10.0071429,12 9.64285714,12 L0.642857143,12 C0.278571429,12 0,11.7214286 0,11.3571429 L0,5.78571429 C0,5.42142857 0.278571429,5.14285714 0.642857143,5.14285714 L0.857142857,5.14285714 L1.28571429,5.14285714 L2.14285714,5.14285714 L2.57142857,5.14285714 L7.71428571,5.14285714 L8.14285714,5.14285714 L9,5.14285714 L9.42857143,5.14285714 L9.64285714,5.14285714 M6,7.92857143 C6,7.45714286 5.61428571,7.07142857 5.14285714,7.07142857 C4.67142857,7.07142857 4.28571429,7.45714286 4.28571429,7.92857143 C4.28571429,8.25 4.45714286,8.52857143 4.71428571,8.65714286 L4.71428571,9.64285714 C4.71428571,9.87857143 4.90714286,10.0714286 5.14285714,10.0714286 C5.37857143,10.0714286 5.57142857,9.87857143 5.57142857,9.64285714 L5.57142857,8.65714286 C5.82857143,8.52857143 6,8.25 6,7.92857143 Z" id="Shape" fill="#F28C3C" fill-rule="nonzero"></path>
            <path d="M2.14285714,5.14285714 L1.28571429,5.14285714 L1.28571429,3.85714286 C1.28571429,1.73571429 3.02142857,0 5.14285714,0 C7.26428571,0 9,1.73571429 9,3.85714286 L9,5.14285714 L8.14285714,5.14285714 L8.14285714,3.85714286 C8.14285714,2.20714286 6.79285714,0.857142857 5.14285714,0.857142857 C3.49285714,0.857142857 2.14285714,2.20714286 2.14285714,3.85714286 L2.14285714,5.14285714 Z" id="Path" fill="#515151"></path>
        </g>
    </g>
</svg>